<svg width="192" height="35" viewBox="0 0 192 35" fill="none" xmlns="http://www.w3.org/2000/svg">
<path d="M9.73438 34.4688C8 34.4688 6.41406 34.0312 4.97656 33.1562C3.55469 32.2812 2.42188 31.1094 1.57812 29.6406C0.75 28.1562 0.335938 26.5078 0.335938 24.6953L0.382812 9.71875C0.382812 7.9375 0.789062 6.32812 1.60156 4.89062C2.41406 3.4375 3.53125 2.27344 4.95312 1.39844C6.39062 0.507812 7.98438 0.0625 9.73438 0.0625C11.5156 0.0625 13.1016 0.492188 14.4922 1.35156C15.8984 2.21094 17.0156 3.375 17.8438 4.84375C18.6875 6.29688 19.1094 7.92188 19.1094 9.71875V11.9219C19.1094 12.0469 19.0469 12.1094 18.9219 12.1094H13.5312C13.4062 12.1094 13.3438 12.0469 13.3438 11.9219V9.71875C13.3438 8.65625 13 7.74219 12.3125 6.97656C11.625 6.21094 10.7656 5.82812 9.73438 5.82812C8.59375 5.82812 7.71875 6.21875 7.10938 7C6.5 7.78125 6.19531 8.6875 6.19531 9.71875V24.6953C6.19531 25.8672 6.53906 26.8281 7.22656 27.5781C7.91406 28.3125 8.75 28.6797 9.73438 28.6797C10.7656 28.6797 11.625 28.2734 12.3125 27.4609C13 26.6328 13.3438 25.7109 13.3438 24.6953V22.4688C13.3438 22.3438 13.4062 22.2812 13.5312 22.2812H18.9688C19.0938 22.2812 19.1562 22.3438 19.1562 22.4688V24.6953C19.1562 26.4922 18.7344 28.1328 17.8906 29.6172C17.0312 31.0859 15.8984 32.2656 14.4922 33.1562C13.0859 34.0312 11.5 34.4688 9.73438 34.4688ZM31.5312 34.4688C29.8281 34.4688 28.2578 34.0312 26.8203 33.1562C25.3984 32.2812 24.25 31.1172 23.375 29.6641C22.5156 28.1953 22.0859 26.5859 22.0859 24.8359L22.1328 9.625C22.1328 7.84375 22.5625 6.24219 23.4219 4.82031C24.2656 3.38281 25.4062 2.23438 26.8438 1.375C28.2812 0.5 29.8438 0.0625 31.5312 0.0625C33.2812 0.0625 34.8516 0.492188 36.2422 1.35156C37.6484 2.21094 38.7734 3.36719 39.6172 4.82031C40.4766 6.25781 40.9062 7.85938 40.9062 9.625L40.9531 24.8359C40.9531 26.5859 40.5312 28.1875 39.6875 29.6406C38.8281 31.1094 37.6875 32.2812 36.2656 33.1562C34.8438 34.0312 33.2656 34.4688 31.5312 34.4688ZM31.5312 28.6797C32.5 28.6797 33.3438 28.2891 34.0625 27.5078C34.7812 26.7109 35.1406 25.8203 35.1406 24.8359L35.0938 9.625C35.0938 8.5625 34.7578 7.66406 34.0859 6.92969C33.4141 6.19531 32.5625 5.82812 31.5312 5.82812C30.5469 5.82812 29.7031 6.1875 29 6.90625C28.2969 7.625 27.9453 8.53125 27.9453 9.625V24.8359C27.9453 25.8828 28.2969 26.7891 29 27.5547C29.7031 28.3047 30.5469 28.6797 31.5312 28.6797ZM53.4688 34.4688C51.7656 34.4688 50.1953 34.0312 48.7578 33.1562C47.3359 32.2812 46.1875 31.1172 45.3125 29.6641C44.4531 28.1953 44.0234 26.5859 44.0234 24.8359L44.0703 9.625C44.0703 7.84375 44.5 6.24219 45.3594 4.82031C46.2031 3.38281 47.3438 2.23438 48.7812 1.375C50.2188 0.5 51.7812 0.0625 53.4688 0.0625C55.2188 0.0625 56.7891 0.492188 58.1797 1.35156C59.5859 2.21094 60.7109 3.36719 61.5547 4.82031C62.4141 6.25781 62.8438 7.85938 62.8438 9.625L62.8906 24.8359C62.8906 26.5859 62.4688 28.1875 61.625 29.6406C60.7656 31.1094 59.625 32.2812 58.2031 33.1562C56.7812 34.0312 55.2031 34.4688 53.4688 34.4688ZM53.4688 28.6797C54.4375 28.6797 55.2812 28.2891 56 27.5078C56.7188 26.7109 57.0781 25.8203 57.0781 24.8359L57.0312 9.625C57.0312 8.5625 56.6953 7.66406 56.0234 6.92969C55.3516 6.19531 54.5 5.82812 53.4688 5.82812C52.4844 5.82812 51.6406 6.1875 50.9375 6.90625C50.2344 7.625 49.8828 8.53125 49.8828 9.625V24.8359C49.8828 25.8828 50.2344 26.7891 50.9375 27.5547C51.6406 28.3047 52.4844 28.6797 53.4688 28.6797ZM82.2266 34H66.7109C66.5859 34 66.5234 33.9219 66.5234 33.7656L66.5703 0.835938C66.5703 0.679688 66.6484 0.601562 66.8047 0.601562H72.1484C72.3047 0.601562 72.3828 0.679688 72.3828 0.835938L72.3359 28.0938H82.2266C82.3828 28.0938 82.4609 28.1719 82.4609 28.3281V33.7656C82.4609 33.9219 82.3828 34 82.2266 34ZM94.3906 34H85.7891C85.6641 34 85.6016 33.9219 85.6016 33.7656L85.6953 0.789062C85.6953 0.664062 85.7578 0.601562 85.8828 0.601562H95.1172C96.9141 0.601562 98.5469 1.03906 100.016 1.91406C101.453 2.78906 102.586 3.95312 103.414 5.40625C104.242 6.84375 104.656 8.40625 104.656 10.0938C104.656 11.4688 104.344 12.75 103.719 13.9375C103.094 15.125 102.352 16.0859 101.492 16.8203C102.414 17.7422 103.133 18.8125 103.648 20.0312C104.164 21.25 104.422 22.5312 104.422 23.875C104.422 25.7344 103.977 27.4297 103.086 28.9609C102.18 30.4922 100.969 31.7188 99.4531 32.6406C97.9375 33.5469 96.25 34 94.3906 34ZM95.1172 6.29688H91.4609V13.8438H95.1172C96.2266 13.8438 97.125 13.4531 97.8125 12.6719C98.5 11.875 98.8438 11.0156 98.8438 10.0938C98.8438 9.07812 98.4766 8.19531 97.7422 7.44531C97.0078 6.67969 96.1328 6.29688 95.1172 6.29688ZM94.3906 19.6562H91.4609L91.4141 28.1406H94.3906C95.5469 28.1406 96.5391 27.7188 97.3672 26.875C98.1953 26.0312 98.6094 25.0312 98.6094 23.875C98.6094 22.7188 98.1953 21.7266 97.3672 20.8984C96.5391 20.0703 95.5469 19.6562 94.3906 19.6562ZM113.492 34H108.055C107.93 34 107.867 33.9219 107.867 33.7656L107.961 0.789062C107.961 0.664062 108.023 0.601562 108.148 0.601562H117.852C119.586 0.601562 121.18 1.02344 122.633 1.86719C124.086 2.71094 125.242 3.84375 126.102 5.26562C126.977 6.6875 127.414 8.29688 127.414 10.0938C127.414 11.2656 127.234 12.3281 126.875 13.2812C126.516 14.2344 126.094 15.0391 125.609 15.6953C125.141 16.3516 124.711 16.8359 124.32 17.1484C126.055 19.0703 126.922 21.3281 126.922 23.9219L126.969 33.7656C126.969 33.9219 126.891 34 126.734 34H121.297C121.172 34 121.109 33.9531 121.109 33.8594V23.9219C121.109 22.7656 120.703 21.7656 119.891 20.9219C119.078 20.0781 118.078 19.6562 116.891 19.6562H113.727L113.68 33.7656C113.68 33.9219 113.617 34 113.492 34ZM117.852 6.34375H113.727V13.8906H117.852C118.836 13.8906 119.711 13.5234 120.477 12.7891C121.258 12.0547 121.648 11.1562 121.648 10.0938C121.648 9.07812 121.273 8.20312 120.523 7.46875C119.773 6.71875 118.883 6.34375 117.852 6.34375ZM128.422 33.7656L134.375 0.789062C134.406 0.664062 134.484 0.601562 134.609 0.601562H141.57C141.695 0.601562 141.773 0.664062 141.805 0.789062L147.523 33.7656C147.539 33.9219 147.477 34 147.336 34H142.016C141.859 34 141.773 33.9219 141.758 33.7656L141.242 30.25H134.703L134.188 33.7656C134.172 33.9219 134.094 34 133.953 34H128.609C128.484 34 128.422 33.9219 128.422 33.7656ZM137.82 11.6406L135.664 25.1172H140.281L138.312 11.6406L138.031 9.85938L137.82 11.6406ZM155.75 34H150.945C150.695 34 150.57 33.8906 150.57 33.6719L150.523 0.976562C150.523 0.726562 150.648 0.601562 150.898 0.601562H155.234L163.344 19.5156L163.109 0.976562C163.109 0.726562 163.25 0.601562 163.531 0.601562H168.289C168.477 0.601562 168.57 0.726562 168.57 0.976562L168.617 33.7188C168.617 33.9062 168.539 34 168.383 34H164.164L155.844 16.3281L156.195 33.625C156.195 33.875 156.047 34 155.75 34ZM181.625 33.9531L173.023 34C172.867 34 172.789 33.9219 172.789 33.7656L172.883 0.789062C172.883 0.664062 172.945 0.601562 173.07 0.601562L182.047 0.554688C183.828 0.507812 185.438 0.914062 186.875 1.77344C188.328 2.63281 189.484 3.79688 190.344 5.26562C191.219 6.71875 191.656 8.32812 191.656 10.0938V23.875C191.656 25.7188 191.211 27.4062 190.32 28.9375C189.414 30.4531 188.211 31.6641 186.711 32.5703C185.211 33.4609 183.516 33.9219 181.625 33.9531ZM182.047 6.29688L178.695 6.34375L178.648 28.0938H181.625C182.812 28.0938 183.812 27.6797 184.625 26.8516C185.438 26.0234 185.844 25.0312 185.844 23.875V10.0469C185.844 9.03125 185.469 8.14844 184.719 7.39844C183.969 6.63281 183.078 6.26562 182.047 6.29688Z" fill="#37415A"/>
</svg>
